<?xml version="1.0" encoding="UTF-8"?>
<svg width="448px" height="405px" viewBox="0 0 448 405" version="1.1" xmlns="http://www.w3.org/2000/svg" xmlns:xlink="http://www.w3.org/1999/xlink">
    <!-- Generator: Sketch 42 (36781) - http://www.bohemiancoding.com/sketch -->
    <title>agreed-logo</title>
    <desc>Created with Sketch.</desc>
    <defs></defs>
    <g id="Page-1" stroke="none" stroke-width="1" fill="none" fill-rule="evenodd">
        <g id="Artboard" transform="translate(-339.000000, -300.000000)">
            <g id="agreed-logo" transform="translate(339.000000, 300.000000)">
                <g id="a-side">
                    <circle id="Oval" fill="#44ACC9" cx="135" cy="135" r="135"></circle>
                    <path d="M62,148.838219 C62,179.049156 81.995605,202.60775 97.4628906,202.60775 C112.930176,202.60775 138.120048,202.60775 155.423828,202.60775 C172.727608,202.60775 191.886719,187.299156 191.886719,170.564781 C191.886719,153.830406 199.833984,144.699547 203.683594,127.463219 C207.533203,110.226891 196.558129,104.564781 181.094657,104.564781 L131.411182,104.564781 L145.117188,80.3479843 C149.506251,71.7339632 153.887695,53.4388047 138.517578,44.0931015 C127.553732,37.4266037 116.433594,63.0784531 111.208984,71.7200547 C105.984375,80.3616562 95.4208984,92.1927109 88.5380859,97.0872422 C80.1104037,103.080367 62,118.627281 62,148.838219 Z" id="Combined-Shape" fill="#FFFFFF"></path>
                </g>
                <g id="b-side" transform="translate(178.000000, 135.000000)">
                    <circle id="Oval" fill="#C9447B" transform="translate(135.000000, 135.000000) scale(-1, 1) translate(-135.000000, -135.000000) " cx="135" cy="135" r="135"></circle>
                    <path d="M62,148.838219 C62,179.049156 81.995605,202.60775 97.4628906,202.60775 C112.930176,202.60775 138.120048,202.60775 155.423828,202.60775 C172.727608,202.60775 191.886719,187.299156 191.886719,170.564781 C191.886719,153.830406 199.833984,144.699547 203.683594,127.463219 C207.533203,110.226891 196.558129,104.564781 181.094657,104.564781 L131.411182,104.564781 L145.117188,80.3479843 C149.506251,71.7339632 153.887695,53.4388047 138.517578,44.0931015 C127.553732,37.4266037 116.433594,63.0784531 111.208984,71.7200547 C105.984375,80.3616562 95.4208984,92.1927109 88.5380859,97.0872422 C80.1104037,103.080367 62,118.627281 62,148.838219 Z" id="Combined-Shape" fill="#FFFFFF" transform="translate(133.228823, 122.803875) scale(-1, 1) translate(-133.228823, -122.803875) "></path>
                </g>
            </g>
        </g>
    </g>
</svg>