<?xml version="1.0" encoding="UTF-8"?>
<svg width="752px" height="200px" viewBox="0 0 752 200" version="1.1" xmlns="http://www.w3.org/2000/svg" xmlns:xlink="http://www.w3.org/1999/xlink">
    <!-- Generator: Sketch 42 (36781) - http://www.bohemiancoding.com/sketch -->
    <title>logo+text for export</title>
    <desc>Created with Sketch.</desc>
    <defs></defs>
    <g id="Page-1" stroke="none" stroke-width="1" fill="none" fill-rule="evenodd">
        <g id="Artboard" transform="translate(-181.000000, -566.000000)">
            <g id="logo+text-for-export" transform="translate(181.000000, 566.000000)">
                <g id="agreed">
                    <g id="a-side">
                        <ellipse id="Oval" fill="#44ACC9" cx="66.2986787" cy="66.4781917" rx="66.2986787" ry="66.4781917"></ellipse>
                        <path d="M30.448282,73.2925603 C30.448282,88.1693639 40.2681501,99.770347 47.8641546,99.770347 C55.460159,99.770347 67.8309386,99.770347 76.3288477,99.770347 C84.8267568,99.770347 94.2358215,92.2319201 94.2358215,83.9913943 C94.2358215,75.7508684 98.1387342,71.2545497 100.029282,62.7668466 C101.919831,54.2791434 96.5299572,51.490945 88.9358255,51.490945 L64.5362052,51.490945 L71.2672428,39.5658423 C73.4227175,35.3240308 75.5744508,26.3149267 68.0261659,21.7128123 C62.6418065,18.4300217 57.180692,31.0617889 54.6148794,35.3171818 C52.0490668,39.5725747 46.8613295,45.3985534 43.4811712,47.8087726 C39.3423253,50.7599733 30.448282,58.4157566 30.448282,73.2925603 Z" id="Combined-Shape" fill="#FFFFFF"></path>
                    </g>
                    <g id="b-side" transform="translate(87.416036, 66.478192)">
                        <ellipse id="Oval" fill="#C9447B" transform="translate(66.298679, 66.478192) scale(-1, 1) translate(-66.298679, -66.478192) " cx="66.2986787" cy="66.4781917" rx="66.2986787" ry="66.4781917"></ellipse>
                        <path d="M30.448282,73.2925603 C30.448282,88.1693639 40.2681501,99.770347 47.8641546,99.770347 C55.460159,99.770347 67.8309386,99.770347 76.3288477,99.770347 C84.8267568,99.770347 94.2358215,92.2319201 94.2358215,83.9913943 C94.2358215,75.7508684 98.1387342,71.2545497 100.029282,62.7668466 C101.919831,54.2791434 96.5299572,51.490945 88.9358255,51.490945 L64.5362052,51.490945 L71.2672428,39.5658423 C73.4227175,35.3240308 75.5744508,26.3149267 68.0261659,21.7128123 C62.6418065,18.4300217 57.180692,31.0617889 54.6148794,35.3171818 C52.0490668,39.5725747 46.8613295,45.3985534 43.4811712,47.8087726 C39.3423253,50.7599733 30.448282,58.4157566 30.448282,73.2925603 Z" id="Combined-Shape" fill="#FFFFFF" transform="translate(65.428851, 60.472441) scale(-1, 1) translate(-65.428851, -60.472441) "></path>
                    </g>
                </g>
                <path d="M327.976,139 L319.048,117.688 L269.8,117.688 L260.872,139 L240.856,139 L285.064,38.2 L305.08,38.2 L348.712,139 L327.976,139 Z M276.712,101.128 L312.136,101.128 L294.568,58.792 L276.712,101.128 Z M427.048,61.96 L427.048,131.656 C427.048,138.952036 425.392017,145.311973 422.08,150.736 C418.767983,156.160027 414.06403,160.335985 407.968,163.264 C401.87197,166.192015 394.79204,167.656 386.728,167.656 C375.015941,167.656 364.16805,164.248034 354.184,157.432 L361.672,143.896 C368.968036,149.272027 376.983956,151.96 385.72,151.96 C392.632035,151.96 398.12798,150.184018 402.208,146.632 C406.28802,143.079982 408.328,138.232031 408.328,132.088 L408.328,123.016 C405.735987,126.95202 402.376021,129.95199 398.248,132.016 C394.119979,134.08001 389.320027,135.112 383.848,135.112 C377.127966,135.112 371.176026,133.552016 365.992,130.432 C360.807974,127.311984 356.776014,122.944028 353.896,117.328 C351.015986,111.711972 349.576,105.256036 349.576,97.96 C349.576,90.759964 351.015986,84.4000276 353.896,78.88 C356.776014,73.3599724 360.807974,69.0640154 365.992,65.992 C371.176026,62.9199846 377.127966,61.384 383.848,61.384 C389.224027,61.384 393.999979,62.4399894 398.176,64.552 C402.352021,66.6640106 405.735987,69.6399808 408.328,73.48 L408.328,61.96 L427.048,61.96 Z M402.64,114.304 C406.432019,110.22398 408.328,104.920033 408.328,98.392 C408.328,91.8639674 406.432019,86.5600204 402.64,82.48 C398.847981,78.3999796 393.92803,76.36 387.88,76.36 C381.83197,76.36 376.912019,78.4239794 373.12,82.552 C369.327981,86.6800206 367.384,91.9599678 367.288,98.392 C367.384,104.920033 369.327981,110.22398 373.12,114.304 C376.912019,118.38402 381.83197,120.424 387.88,120.424 C393.92803,120.424 398.847981,118.38402 402.64,114.304 Z M478.384,65.344 C482.848022,62.7039868 488.05597,61.3360005 494.008,61.24 L494.008,79.384 C486.03996,78.9039976 479.680024,80.7519791 474.928,84.928 C470.175976,89.1040209 467.8,94.7439645 467.8,101.848 L467.8,139 L449.08,139 L449.08,61.96 L467.8,61.96 L467.8,76.792 C470.392013,71.799975 473.919978,67.9840132 478.384,65.344 Z M566.944,71.896 C573.136031,78.904035 576.232,88.7439366 576.232,101.416 C576.232,103.912012 576.184,105.783994 576.088,107.032 L519.208,107.032 C520.456006,112.504027 523.023981,116.799984 526.912,119.92 C530.800019,123.040016 535.575972,124.6 541.24,124.6 C545.17602,124.6 548.943982,123.856007 552.544,122.368 C556.144018,120.879993 559.287987,118.744014 561.976,115.96 L572.056,126.472 C568.215981,130.696021 563.536028,133.959988 558.016,136.264 C552.495972,138.568012 546.376034,139.72 539.656,139.72 C531.783961,139.72 524.84803,138.088016 518.848,134.824 C512.84797,131.559984 508.216016,126.97603 504.952,121.072 C501.687984,115.16797 500.056,108.376038 500.056,100.696 C500.056,93.0159616 501.711983,86.2000298 505.024,80.248 C508.336017,74.2959702 512.96797,69.6640166 518.92,66.352 C524.87203,63.0399834 531.639962,61.384 539.224,61.384 C551.512061,61.384 560.751969,64.887965 566.944,71.896 Z M559.096,94.504 C558.903999,88.8399717 557.032018,84.3280168 553.48,80.968 C549.927982,77.6079832 545.224029,75.928 539.368,75.928 C533.895973,75.928 529.312018,77.5839834 525.616,80.896 C521.919982,84.2080166 519.640004,88.7439712 518.776,94.504 L559.096,94.504 Z M652.192,71.896 C658.384031,78.904035 661.48,88.7439366 661.48,101.416 C661.48,103.912012 661.432,105.783994 661.336,107.032 L604.456,107.032 C605.704006,112.504027 608.271981,116.799984 612.16,119.92 C616.048019,123.040016 620.823972,124.6 626.488,124.6 C630.42402,124.6 634.191982,123.856007 637.792,122.368 C641.392018,120.879993 644.535987,118.744014 647.224,115.96 L657.304,126.472 C653.463981,130.696021 648.784028,133.959988 643.264,136.264 C637.743972,138.568012 631.624034,139.72 624.904,139.72 C617.031961,139.72 610.09603,138.088016 604.096,134.824 C598.09597,131.559984 593.464016,126.97603 590.2,121.072 C586.935984,115.16797 585.304,108.376038 585.304,100.696 C585.304,93.0159616 586.959983,86.2000298 590.272,80.248 C593.584017,74.2959702 598.21597,69.6640166 604.168,66.352 C610.12003,63.0399834 616.887962,61.384 624.472,61.384 C636.760061,61.384 645.999969,64.887965 652.192,71.896 Z M644.344,94.504 C644.151999,88.8399717 642.280018,84.3280168 638.728,80.968 C635.175982,77.6079832 630.472029,75.928 624.616,75.928 C619.143973,75.928 614.560018,77.5839834 610.864,80.896 C607.167982,84.2080166 604.888004,88.7439712 604.024,94.504 L644.344,94.504 Z M751.912,32.152 L751.912,139 L733.192,139 L733.192,126.616 C730.407986,130.936022 726.832022,134.223989 722.464,136.48 C718.095978,138.736011 713.032029,139.864 707.272,139.864 C699.975964,139.864 693.568028,138.208017 688.048,134.896 C682.527972,131.583983 678.232015,126.92803 675.16,120.928 C672.087985,114.92797 670.552,108.040039 670.552,100.264 C670.552,92.5839616 672.063985,85.7920295 675.088,79.888 C678.112015,73.9839705 682.383972,69.4000163 687.904,66.136 C693.424028,62.8719837 699.735964,61.24 706.84,61.24 C712.696029,61.24 717.831978,62.3919885 722.248,64.696 C726.664022,67.0000115 730.311986,70.3119784 733.192,74.632 L733.192,32.152 L751.912,32.152 Z M727.072,117.616 C731.15202,113.247978 733.192,107.608035 733.192,100.696 C733.192,93.7839654 731.15202,88.1440218 727.072,83.776 C722.99198,79.4079782 717.736032,77.224 711.304,77.224 C704.871968,77.224 699.64002,79.4079782 695.608,83.776 C691.57598,88.1440218 689.512,93.7839654 689.416,100.696 C689.512,107.608035 691.57598,113.247978 695.608,117.616 C699.64002,121.984022 704.871968,124.168 711.304,124.168 C717.736032,124.168 722.99198,121.984022 727.072,117.616 Z" id="Agreed" fill="#202020"></path>
            </g>
        </g>
    </g>
</svg>